<svg xmlns="http://www.w3.org/2000/svg" xmlns:xlink="http://www.w3.org/1999/xlink" width="500" zoomAndPan="magnify" viewBox="0 0 375 374.999991" height="500" preserveAspectRatio="xMidYMid meet" version="1.0"><path fill="#d6c6ba" d="M 173.992188 0.445312 C 172.574219 0.59375 168.148438 1.121094 164.242188 1.578125 C 148.5 3.375 130.648438 8.101562 114.980469 14.703125 C 58.273438 38.394531 15.597656 90.378906 3.824219 150 C 1.050781 164.179688 0.378906 171.144531 0.378906 187.5 C 0.378906 208.578125 2.472656 223.125 8.023438 241.503906 C 26.175781 301.652344 73.421875 348.824219 133.726562 367.046875 C 151.875 372.527344 166.5 374.621094 187.5 374.621094 C 208.578125 374.621094 223.125 372.527344 241.503906 366.976562 C 301.652344 348.824219 348.824219 301.574219 367.046875 241.273438 C 372.527344 223.125 374.621094 208.5 374.621094 187.5 C 374.621094 178.574219 374.175781 168.378906 373.648438 164.621094 C 367.574219 121.273438 349.71875 84.824219 319.953125 55.046875 C 290.242188 25.496094 253.945312 7.574219 211.492188 1.5 C 205.644531 0.671875 178.570312 -0.0820312 173.996094 0.445312 Z M 112.871094 118.570312 C 116.855469 119.769531 118.71875 120.894531 121.421875 123.59375 C 126.671875 128.925781 127.875 131.847656 127.875 139.867188 C 127.875 145.878906 127.644531 147 125.851562 150.144531 C 122.394531 155.992188 114.371094 161.394531 108.824219 161.542969 C 104.917969 161.625 105.078125 159.894531 109.351562 155.398438 C 115.046875 149.472656 115.871094 147.226562 115.871094 138.367188 C 115.800781 129.824219 114.75 126.902344 110.777344 124.5 C 107.472656 122.476562 103.878906 122.625 98.625 125.09375 C 84.972656 131.628906 70.199219 153.375 64.429688 175.65625 C 56.773438 205.351562 70.347656 229.121094 92.699219 225.070312 C 99.21875 223.867188 111.523438 217.574219 116.855469 212.617188 C 121.273438 208.578125 121.273438 208.5 121.71875 203.476562 C 122.703125 192.96875 130.117188 182.476562 140.03125 177.601562 C 144.59375 175.34375 145.726562 175.128906 151.875 175.128906 C 157.722656 175.128906 159.074219 175.425781 161.921875 176.992188 C 170.996094 182.179688 169.121094 194.25 159.300781 194.25 C 153.601562 194.25 150.671875 191.320312 154.804688 189.753906 C 158.855469 188.253906 157.34375 182.625 152.628906 181.351562 C 147.078125 179.921875 140.773438 183.675781 136.800781 190.875 C 131.996094 199.574219 131.777344 209.929688 136.34375 214.644531 C 140.773438 219.371094 146.324219 215.628906 150.605469 204.894531 C 152.847656 199.421875 156.074219 196.492188 159.828125 196.492188 C 163.125 196.492188 163.730469 198.519531 162.296875 204.675781 C 160.195312 214.199219 161.625 216.671875 167.550781 213.753906 C 169.496094 212.847656 172.726562 210.753906 174.671875 209.253906 L 178.34375 206.324219 L 180.828125 193.347656 C 183.53125 178.800781 184.570312 176.84375 190.121094 175.804688 C 195.453125 174.820312 196.65625 177.449219 194.699219 185.769531 L 193.644531 190.429688 L 197.546875 186.445312 C 206.769531 176.992188 218.101562 172.347656 222.003906 176.25 C 224.097656 178.34375 223.867188 180.976562 220.871094 190.269531 C 219.449219 194.699219 217.492188 201.679688 216.601562 205.648438 C 215.253906 211.644531 215.171875 213.074219 215.929688 214.050781 C 218.332031 216.898438 225.675781 213.96875 232.199219 207.59375 L 236.023438 203.851562 L 236.480469 195.519531 C 236.925781 185.921875 237.820312 182.476562 240.371094 179.394531 C 242.773438 176.546875 247.125 174.453125 249.449219 175.046875 C 251.769531 175.65625 251.769531 177.898438 249.675781 184.503906 C 246.746094 193.574219 247.054688 214.496094 250.054688 214.496094 C 251.253906 214.496094 257.398438 208.050781 261.304688 202.652344 L 264.222656 198.667969 L 261.898438 196.277344 C 257.847656 192 256.875 189.226562 256.875 182.246094 C 256.875 177.15625 257.253906 175.277344 258.519531 172.792969 C 260.628906 168.902344 263.921875 166.054688 267.824219 164.921875 C 271.945312 163.648438 277.046875 165.742188 279.144531 169.496094 C 281.25 173.320312 280.726562 181.867188 278.019531 187.726562 L 276.074219 191.996094 L 278.699219 191.996094 C 282.300781 191.996094 283.722656 191.101562 290.175781 185.027344 C 293.550781 181.800781 297.453125 179.019531 300.371094 177.671875 C 311.851562 172.28125 325.355469 175.046875 327.597656 183.296875 C 329.472656 189.902344 325.355469 194.546875 318.144531 194.019531 C 312.972656 193.644531 312 192.292969 315 189.753906 C 320.398438 185.242188 315 179.476562 307.273438 181.574219 C 303.074219 182.703125 298.347656 187.421875 295.878906 192.902344 C 290.921875 203.851562 293.550781 216.75 300.671875 216.75 C 303.519531 216.75 308.554688 211.121094 310.5 205.648438 C 312.824219 199.34375 317.699219 195.375 321.371094 196.800781 C 323.398438 197.546875 323.546875 199.574219 322.277344 205.949219 C 320.847656 212.929688 320.628906 219.453125 321.75 222.449219 C 322.199219 223.570312 323.546875 225.675781 324.828125 227.097656 C 327.21875 229.796875 327.300781 230.769531 325.273438 232.050781 C 324.300781 232.726562 323.019531 232.429688 319.875 230.703125 C 315.523438 228.449219 311.769531 224.394531 310.421875 220.574219 L 309.597656 218.328125 L 306.597656 220.574219 C 304.867188 221.773438 302.171875 223.125 300.601562 223.570312 C 294.375 225.21875 286.71875 220.949219 283.128906 213.753906 C 281.695312 210.96875 281.25 202.800781 282.300781 199.652344 C 282.898438 197.921875 282.898438 197.921875 280.492188 199.125 C 279.226562 199.800781 276.523438 200.546875 274.429688 200.773438 C 270.972656 201.15625 270.445312 201.53125 267.003906 205.878906 C 262.128906 211.941406 253.496094 220.128906 249.972656 221.855469 C 242.480469 225.597656 240.007812 224.546875 238.050781 216.816406 L 236.699219 211.644531 L 233.46875 214.496094 C 229.351562 218.101562 221.101562 222.449219 216.371094 223.503906 C 211.875 224.476562 207.070312 223.046875 205.121094 220.046875 C 202.207031 215.546875 203.179688 206.027344 207.824219 193.199219 C 211.269531 183.675781 208.800781 183.53125 200.101562 192.601562 C 193.648438 199.421875 190.875 204.296875 189.078125 211.875 C 187.203125 219.75 184.949219 222.597656 179.855469 223.796875 C 176.777344 224.476562 175.34375 222.597656 175.953125 218.476562 L 176.398438 215.171875 L 173.550781 217.128906 C 169.496094 219.898438 164.394531 222.449219 160.871094 223.421875 C 157.34375 224.394531 152.699219 223.351562 151.578125 221.394531 C 149.550781 217.953125 149.550781 217.953125 146.40625 220.421875 C 139.574219 225.976562 129.824219 224.394531 124.878906 217.046875 L 123.296875 214.726562 L 118.355469 219.300781 C 104.09375 232.351562 86.253906 238.199219 73.050781 234.144531 C 56.246094 229.054688 46.953125 214.644531 47.105469 193.875 C 47.175781 173.023438 56.398438 151.050781 71.925781 134.777344 C 80.703125 125.621094 88.953125 120.21875 97.355469 118.195312 C 103.421875 116.695312 107.105469 116.773438 112.871094 118.574219 Z M 112.871094 118.570312 " fill-opacity="1" fill-rule="nonzero"/><path fill="#d6c6ba" d="M 264.894531 171.902344 C 263.246094 173.546875 263.851562 180.152344 265.949219 184.351562 C 267.003906 186.527344 268.125 188.253906 268.5 188.253906 C 268.796875 188.253906 269.472656 186.527344 270 184.421875 C 271.875 176.628906 268.5 168.296875 264.898438 171.902344 Z M 264.894531 171.902344 " fill-opacity="1" fill-rule="nonzero"/></svg>