<svg xmlns="http://www.w3.org/2000/svg" xmlns:xlink="http://www.w3.org/1999/xlink" width="500" zoomAndPan="magnify" viewBox="0 0 375 374.999991" height="500" preserveAspectRatio="xMidYMid meet" version="1.0"><path fill="#d6c6ba" d="M 344.238281 98.144531 L 345.117188 97.558594 C 343.359375 94.335938 340.722656 91.40625 338.085938 89.941406 L 196.582031 8.496094 C 194.238281 7.03125 191.015625 6.445312 187.5 6.445312 C 183.984375 6.445312 180.761719 7.324219 178.417969 8.496094 L 37.792969 90.234375 C 32.8125 93.164062 29.296875 100.488281 29.296875 106.054688 L 29.296875 269.238281 C 29.296875 272.460938 29.882812 275.976562 31.933594 279.199219 L 31.347656 279.492188 C 32.8125 281.835938 34.863281 283.886719 36.914062 285.058594 L 178.125 366.796875 C 180.46875 368.261719 183.691406 368.847656 187.207031 368.847656 C 190.722656 368.847656 193.945312 367.96875 196.289062 366.796875 L 336.914062 285.058594 C 341.894531 282.128906 345.410156 274.804688 345.410156 269.238281 L 345.410156 105.761719 C 345.703125 103.417969 345.410156 100.78125 344.238281 98.144531 Z M 187.5 303.222656 C 123.632812 303.222656 71.777344 251.367188 71.777344 187.5 C 71.777344 123.632812 123.632812 71.777344 187.5 71.777344 C 230.566406 71.777344 268.066406 95.507812 287.988281 130.371094 L 249.902344 152.34375 C 237.597656 130.371094 214.160156 115.722656 187.5 115.722656 C 147.949219 115.722656 115.722656 147.949219 115.722656 187.5 C 115.722656 227.050781 147.949219 259.277344 187.5 259.277344 C 214.160156 259.277344 237.597656 244.628906 249.902344 222.949219 L 287.695312 245.214844 C 267.773438 279.785156 230.273438 303.222656 187.5 303.222656 Z M 336.914062 181.640625 L 327.539062 181.640625 L 324.902344 193.359375 L 336.914062 193.359375 L 336.914062 208.007812 L 322.265625 208.007812 L 318.75 225.585938 L 304.394531 225.585938 L 307.910156 208.007812 L 296.777344 208.007812 L 293.261719 225.585938 L 279.199219 225.585938 L 282.714844 208.007812 L 275.390625 208.007812 L 275.390625 193.359375 L 285.644531 193.359375 L 288.28125 181.640625 L 275.390625 181.640625 L 275.390625 166.992188 L 290.917969 166.992188 L 294.433594 149.414062 L 308.789062 149.414062 L 305.273438 166.992188 L 316.40625 166.992188 L 319.921875 149.414062 L 333.984375 149.414062 L 330.46875 166.992188 L 336.914062 166.992188 Z M 299.707031 193.359375 L 310.839844 193.359375 L 313.476562 181.640625 L 302.34375 181.640625 Z M 299.707031 193.359375 " fill-opacity="1" fill-rule="nonzero"/></svg>