<svg xmlns="http://www.w3.org/2000/svg" xmlns:xlink="http://www.w3.org/1999/xlink" width="500" zoomAndPan="magnify" viewBox="0 0 375 374.999991" height="500" preserveAspectRatio="xMidYMid meet" version="1.0"><path fill="#250902" d="M 25.664062 2.929688 L 55.121094 333.640625 L 187.304688 370.496094 L 319.855469 333.507812 L 349.335938 2.929688 Z M 288.136719 78.695312 L 278.332031 188.867188 L 278.363281 189.460938 L 278.320312 190.832031 L 278.320312 190.820312 L 271.355469 267.851562 L 270.585938 274.695312 L 187.5 297.675781 L 187.5 297.679688 L 187.433594 297.734375 L 104.492188 274.625 L 98.875 210.9375 L 139.550781 210.9375 L 142.433594 243.320312 L 187.511719 255.539062 L 187.5 255.5625 L 187.5 255.554688 L 232.742188 243.167969 L 237.523438 190.429688 L 142.945312 190.429688 L 142.132812 181.515625 L 140.285156 160.628906 L 139.316406 149.414062 L 241.117188 149.414062 L 244.820312 108.398438 L 89.765625 108.398438 L 88.953125 99.488281 L 87.109375 78.597656 L 86.136719 67.382812 L 289.105469 67.382812 Z M 288.136719 78.695312 " fill-opacity="1" fill-rule="nonzero"/></svg>