<svg xmlns="http://www.w3.org/2000/svg" xmlns:xlink="http://www.w3.org/1999/xlink" width="500" zoomAndPan="magnify" viewBox="0 0 375 374.999991" height="500" preserveAspectRatio="xMidYMid meet" version="1.0"><path fill="#d6c6ba" d="M 26.460938 5.859375 L 55.773438 334.257812 L 187.304688 370.585938 L 319.199219 334.296875 L 348.539062 5.859375 Z M 287.570312 83.609375 L 285.734375 104.621094 L 284.925781 114.257812 L 130.632812 114.257812 L 134.316406 155.273438 L 281.257812 155.273438 L 280.273438 165.441406 L 270.800781 271.257812 L 270.105469 277.910156 L 187.5 300.613281 L 187.5 300.617188 L 187.398438 300.671875 L 104.851562 278.921875 L 99.246094 216.796875 L 139.71875 216.796875 L 142.585938 248.785156 L 187.375 260.742188 L 187.5 260.742188 L 187.5 259.140625 L 232.484375 247.789062 L 237.183594 196.289062 L 97.445312 196.289062 L 87.535156 84.617188 L 86.570312 73.242188 L 288.539062 73.242188 L 287.574219 83.609375 Z M 287.570312 83.609375 " fill-opacity="1" fill-rule="nonzero"/></svg>