<svg xmlns="http://www.w3.org/2000/svg" xmlns:xlink="http://www.w3.org/1999/xlink" width="500" zoomAndPan="magnify" viewBox="0 0 375 374.999991" height="500" preserveAspectRatio="xMidYMid meet" version="1.0"><path fill="#d6c6ba" d="M 139.503906 287.460938 C 83.277344 303.167969 173.710938 335.621094 245.308594 304.949219 C 233.582031 300.390625 225.167969 295.132812 225.167969 295.132812 C 193.246094 301.164062 178.433594 301.640625 149.453125 298.332031 C 125.535156 295.589844 139.503906 287.460938 139.503906 287.460938 Z M 236.734375 256.816406 C 194.417969 264.957031 169.976562 264.699219 139.019531 261.503906 C 115.082031 259.027344 130.75 247.425781 130.75 247.425781 C 68.828125 267.980469 165.226562 291.304688 251.773438 265.988281 C 242.574219 262.75 236.734375 256.816406 236.734375 256.816406 Z M 269.898438 79.351562 C 269.898438 79.351562 144.707031 110.605469 204.496094 179.507812 C 222.148438 199.824219 199.867188 218.089844 199.867188 218.089844 C 199.867188 218.089844 244.660156 194.972656 224.09375 166.011719 C 204.878906 139.011719 190.148438 125.601562 269.898438 79.351562 Z M 299.1875 317.078125 C 299.1875 317.078125 309.527344 325.601562 287.796875 332.191406 C 246.484375 344.707031 115.808594 348.480469 79.511719 332.691406 C 66.472656 327.015625 90.933594 319.140625 98.628906 317.480469 C 106.65625 315.742188 111.238281 316.058594 111.238281 316.058594 C 96.730469 305.84375 17.449219 336.128906 70.976562 344.816406 C 216.9375 368.476562 337.042969 334.160156 299.1875 317.078125 Z M 249.023438 228.210938 C 256.039062 223.421875 265.730469 219.265625 265.730469 219.265625 C 265.730469 219.265625 238.121094 224.203125 210.613281 226.515625 C 176.941406 229.339844 140.820312 229.894531 122.6875 227.46875 C 79.761719 221.730469 146.222656 205.941406 146.222656 205.941406 C 146.222656 205.941406 120.40625 204.195312 88.671875 219.546875 C 51.136719 237.695312 181.515625 245.96875 249.023438 228.210938 Z M 265.457031 272.582031 C 265.140625 273.429688 264.085938 274.386719 264.085938 274.386719 C 355.703125 250.300781 322.019531 189.484375 278.210938 204.878906 C 274.367188 206.238281 272.351562 209.398438 272.351562 209.398438 C 272.351562 209.398438 274.78125 208.421875 280.199219 207.289062 C 302.34375 202.675781 334.070312 236.933594 265.457031 272.582031 Z M 188.03125 205.28125 C 174.511719 174.726562 128.675781 147.996094 188.050781 101.101562 C 262.085938 42.664062 224.097656 4.648438 224.097656 4.648438 C 239.417969 65.023438 170.042969 83.261719 145 120.859375 C 127.945312 146.480469 153.367188 174.011719 188.03125 205.28125 Z M 267.933594 356.886719 C 211.722656 367.46875 142.386719 366.234375 101.273438 359.445312 C 101.273438 359.445312 109.695312 366.417969 152.96875 369.203125 C 218.816406 373.414062 319.960938 366.859375 322.351562 335.699219 C 322.355469 335.699219 317.753906 347.511719 267.933594 356.886719 Z M 267.933594 356.886719 " fill-opacity="1" fill-rule="nonzero"/></svg>