<svg xmlns="http://www.w3.org/2000/svg" xmlns:xlink="http://www.w3.org/1999/xlink" width="500" zoomAndPan="magnify" viewBox="0 0 375 374.999991" height="500" preserveAspectRatio="xMidYMid meet" version="1.0"><path fill="#d6c6ba" d="M 367.609375 359.714844 L 359.945312 352.28125 C 352.679688 342.636719 343.339844 334.164062 333.53125 327.132812 C 325.714844 321.519531 308.160156 313.9375 304.894531 304.839844 L 304.292969 304.269531 C 309.839844 303.640625 316.316406 301.636719 321.433594 300.261719 C 330.027344 297.960938 337.125 298.554688 346 296.265625 C 350.003906 295.121094 354.496094 293.976562 357.425781 292.832031 L 357.425781 290.546875 C 354.496094 285.945312 350.3125 279.851562 345.421875 275.6875 C 332.621094 264.789062 318.933594 253.898438 304.550781 244.816406 C 296.570312 239.78125 286.851562 236.511719 278.398438 232.242188 C 275.554688 230.804688 270.628906 230.054688 268.75 227.667969 C 264.304688 222.007812 261.929688 214.828125 258.5 208.234375 C 251.324219 194.414062 244.292969 179.324219 237.9375 164.78125 C 233.601562 154.867188 230.78125 145.09375 225.371094 136.199219 C 199.414062 93.523438 171.480469 67.769531 128.203125 42.453125 C 118.988281 37.066406 107.902344 34.941406 96.183594 32.160156 C 89.902344 31.78125 83.613281 31.398438 77.328125 31.015625 C 73.484375 29.414062 69.492188 24.71875 65.894531 22.4375 C 51.550781 13.378906 14.773438 -6.320312 4.15625 19.582031 C -2.550781 35.933594 14.175781 51.882812 20.15625 60.171875 C 24.359375 65.976562 29.738281 72.496094 32.734375 79.03125 C 34.710938 83.328125 35.046875 87.636719 36.738281 92.183594 C 40.894531 103.378906 44.503906 115.5625 49.882812 125.90625 C 52.601562 131.144531 55.59375 136.660156 59.03125 141.339844 C 61.132812 144.214844 64.742188 145.480469 65.316406 149.914062 C 61.789062 154.855469 61.585938 162.523438 59.601562 168.78125 C 50.667969 196.953125 54.039062 231.964844 67.035156 252.816406 C 71.019531 259.21875 80.410156 272.945312 93.328125 267.675781 C 104.625 263.078125 102.78125 248.816406 106.011719 236.234375 C 106.742188 233.386719 105.46875 231.289062 108.398438 229.375 L 108.398438 229.949219 C 111.398438 236.902344 114.601562 243.761719 118.015625 250.527344 C 125.628906 262.792969 138.195312 275.609375 149.648438 284.257812 C 155.585938 288.742188 161.132812 296.496094 166.992188 299.121094 L 166.992188 298.824219 L 167.640625 298.824219 C 166.152344 295.894531 163.824219 295.40625 161.925781 293.539062 C 157.453125 289.15625 152.476562 283.632812 148.78125 278.605469 C 138.363281 264.464844 129.15625 248.953125 120.769531 232.839844 C 116.761719 225.144531 113.277344 216.640625 109.902344 208.8125 C 108.605469 205.796875 108.621094 201.21875 105.910156 199.65625 C 102.207031 205.394531 96.761719 210.027344 93.898438 216.804688 C 89.328125 227.632812 88.738281 240.839844 87.042969 254.53125 C 86.035156 254.886719 86.484375 254.640625 85.894531 255.097656 C 77.933594 253.179688 75.136719 244.984375 72.175781 237.953125 C 64.691406 220.167969 63.300781 191.535156 69.886719 171.070312 C 71.59375 165.769531 79.296875 149.09375 76.175781 144.199219 C 74.6875 139.320312 69.777344 136.492188 67.03125 132.765625 C 63.628906 128.152344 60.238281 122.082031 57.882812 116.757812 C 51.757812 102.894531 48.898438 87.332031 42.449219 73.316406 C 39.363281 66.613281 34.152344 59.832031 29.871094 53.878906 C 25.132812 47.277344 19.824219 42.417969 16.148438 34.441406 C 14.84375 31.605469 13.070312 27.0625 15.007812 24.148438 C 15.621094 22.183594 16.492188 21.363281 18.4375 20.722656 C 21.757812 18.164062 30.984375 21.570312 34.441406 23.003906 C 43.609375 26.8125 51.261719 30.328125 59.027344 35.472656 C 62.75 37.945312 66.523438 41.007812 71.03125 43.9375 L 76.175781 43.9375 C 84.222656 43.9375 93.238281 44.617188 100.757812 46.902344 C 114.042969 50.945312 125.953125 57.28125 136.769531 64.109375 C 169.714844 84.917969 196.65625 114.558594 215.085938 149.886719 C 218.050781 155.574219 219.332031 161.015625 221.945312 167.046875 C 227.210938 179.214844 233.851562 191.738281 239.089844 203.636719 C 244.324219 215.511719 249.421875 227.488281 256.816406 237.367188 C 260.703125 242.558594 275.714844 245.347656 282.539062 248.234375 C 287.324219 250.253906 295.160156 252.363281 299.691406 255.089844 C 308.339844 260.3125 316.722656 266.527344 324.84375 272.242188 C 328.898438 275.097656 341.367188 281.367188 341.992188 286.535156 C 321.882812 285.984375 306.53125 287.859375 293.402344 293.394531 C 289.671875 294.964844 283.71875 295.011719 283.109375 299.683594 C 285.160156 301.832031 285.480469 305.042969 287.109375 307.683594 C 290.242188 312.753906 295.535156 319.554688 300.257812 323.117188 C 305.417969 327.015625 310.734375 331.175781 316.265625 334.550781 C 326.105469 340.546875 337.085938 343.972656 346.5625 349.984375 C 352.144531 353.527344 358.15625 357.988281 363.597656 361.984375 C 366.292969 363.964844 366.207031 367.035156 372.066406 368.277344 L 372.066406 367.707031 C 369.140625 365.378906 369.296875 362.160156 367.609375 359.714844 Z M 86.464844 68.746094 C 82.273438 68.664062 79.101562 69.203125 76.171875 69.882812 L 76.171875 70.3125 L 76.75 70.3125 C 78.753906 73.242188 82.28125 77.136719 84.753906 80.675781 L 90.472656 92.710938 L 91.039062 92.164062 C 94.578125 89.664062 96.203125 85.6875 96.183594 79.59375 C 94.765625 78.101562 94.554688 76.234375 93.328125 74.453125 C 91.691406 72.085938 88.527344 70.738281 86.464844 68.746094 Z M 86.464844 68.746094 " fill-opacity="1" fill-rule="nonzero"/></svg>