<svg xmlns="http://www.w3.org/2000/svg" xmlns:xlink="http://www.w3.org/1999/xlink" width="500" zoomAndPan="magnify" viewBox="0 0 375 374.999991" height="500" preserveAspectRatio="xMidYMid meet" version="1.0"><path fill="#250902" d="M 187.5 96.792969 C 88.652344 96.792969 8.515625 137.40625 8.515625 187.5 C 8.515625 237.59375 88.652344 278.207031 187.5 278.207031 C 286.347656 278.207031 366.484375 237.59375 366.484375 187.5 C 366.484375 137.40625 286.347656 96.792969 187.5 96.792969 Z M 140.925781 205.171875 C 136.65625 209.167969 131.910156 210.816406 126.6875 212.515625 C 121.464844 214.21875 114.816406 213.867188 106.734375 213.867188 L 88.414062 213.867188 L 83.335938 243.164062 L 61.949219 243.164062 L 81.035156 143.554688 L 122.167969 143.554688 C 134.542969 143.554688 143.570312 147.113281 149.242188 153.609375 C 154.917969 160.105469 156.625 169.324219 154.363281 180.964844 C 153.429688 185.757812 151.855469 190.21875 149.632812 194.191406 C 147.316406 198.316406 144.414062 201.976562 140.925781 205.171875 Z M 203.359375 213.867188 L 211.800781 171.621094 C 212.761719 166.675781 212.410156 163 210.742188 161.207031 C 209.074219 159.40625 205.523438 158.203125 200.09375 158.203125 L 183.132812 158.203125 L 172.199219 213.867188 L 150.976562 213.867188 L 170.066406 117.1875 L 191.289062 117.1875 L 186.214844 143.554688 L 205.117188 143.554688 C 217.015625 143.554688 225.21875 145.941406 229.734375 150.089844 C 234.25 154.238281 235.601562 159.921875 233.796875 169.214844 L 224.917969 213.867188 Z M 321.308594 181.117188 C 320.375 185.914062 318.800781 190.296875 316.582031 194.265625 C 314.359375 198.242188 311.460938 201.878906 307.878906 205.171875 C 303.605469 209.167969 298.859375 210.816406 293.640625 212.515625 C 288.417969 214.21875 281.765625 213.867188 273.683594 213.867188 L 255.363281 213.867188 L 250.289062 243.164062 L 228.898438 243.164062 L 247.984375 143.554688 L 289.121094 143.554688 C 301.492188 143.554688 310.519531 147.113281 316.191406 153.609375 C 321.859375 160.105469 323.570312 169.480469 321.308594 181.117188 Z M 281.011719 158.203125 L 266.359375 158.203125 L 258.371094 199.21875 L 271.386719 199.21875 C 280.003906 199.21875 286.433594 198.367188 290.652344 195.117188 C 294.875 191.871094 297.71875 186.832031 299.199219 179.234375 C 300.617188 171.9375 299.972656 166.246094 297.265625 163.246094 C 294.554688 160.246094 289.140625 158.203125 281.011719 158.203125 Z M 114.0625 158.203125 L 99.410156 158.203125 L 91.421875 199.21875 L 104.429688 199.21875 C 113.054688 199.21875 119.480469 198.367188 123.699219 195.117188 C 127.921875 191.871094 130.769531 186.832031 132.246094 179.234375 C 133.664062 171.9375 133.019531 166.246094 130.3125 163.246094 C 127.605469 160.246094 122.191406 158.203125 114.066406 158.203125 Z M 114.0625 158.203125 " fill-opacity="1" fill-rule="nonzero"/></svg>