<svg xmlns="http://www.w3.org/2000/svg" xmlns:xlink="http://www.w3.org/1999/xlink" width="500" zoomAndPan="magnify" viewBox="0 0 375 374.999991" height="500" preserveAspectRatio="xMidYMid meet" version="1.0"><path fill="#d6c6ba" d="M 144.523438 181.640625 L 229.949219 181.640625 C 253.726562 181.640625 272.460938 161.519531 272.460938 137.640625 L 272.460938 56.199219 C 272.460938 33.019531 253.03125 15.605469 229.820312 11.738281 C 215.128906 9.292969 199.949219 8.179688 185.324219 8.25 C 170.707031 8.316406 157.164062 9.5625 144.882812 11.738281 C 108.683594 18.128906 102.539062 31.515625 102.539062 56.199219 L 102.539062 87.890625 L 187.5 87.890625 L 187.5 99.609375 L 69.65625 99.609375 C 44.800781 99.609375 23.035156 114.574219 16.226562 143 C 8.375 175.578125 8.023438 195.496094 16.226562 229.515625 C 22.308594 254.832031 36.824219 272.460938 61.683594 272.460938 L 90.820312 272.460938 L 90.820312 234.234375 C 90.820312 206 115.511719 181.640625 144.523438 181.640625 Z M 139.136719 67.058594 C 130.269531 67.058594 123.085938 59.796875 123.085938 50.816406 C 123.085938 41.792969 130.269531 34.464844 139.136719 34.464844 C 147.96875 34.464844 155.1875 41.792969 155.1875 50.816406 C 155.183594 59.796875 147.964844 67.058594 139.136719 67.058594 Z M 358.246094 143 C 352.097656 118.25 340.363281 99.609375 315.472656 99.609375 L 284.179688 99.609375 L 284.179688 137.640625 C 284.179688 167.082031 258.414062 190.429688 229.949219 190.429688 L 144.523438 190.429688 C 121.117188 190.429688 102.539062 211.890625 102.539062 235.328125 L 102.539062 316.773438 C 102.539062 339.949219 122.300781 353.582031 144.90625 360.234375 C 171.984375 368.195312 197.625 369.632812 230.019531 360.234375 C 251.546875 353.996094 272.460938 341.453125 272.460938 316.773438 L 272.460938 284.179688 L 187.5 284.179688 L 187.5 272.460938 L 315.472656 272.460938 C 340.328125 272.460938 349.597656 255.539062 358.246094 229.511719 C 367.171875 202.71875 366.789062 177.367188 358.246094 143 Z M 235.332031 305.910156 C 244.199219 305.910156 251.382812 313.171875 251.382812 322.160156 C 251.382812 331.171875 244.203125 338.503906 235.332031 338.503906 C 226.496094 338.503906 219.28125 331.175781 219.28125 322.160156 C 219.28125 313.171875 226.496094 305.910156 235.332031 305.910156 Z M 235.332031 305.910156 " fill-opacity="1" fill-rule="nonzero"/></svg>