<svg xmlns="http://www.w3.org/2000/svg" xmlns:xlink="http://www.w3.org/1999/xlink" width="500" zoomAndPan="magnify" viewBox="0 0 375 374.999991" height="500" preserveAspectRatio="xMidYMid meet" version="1.0"><path fill="#d6c6ba" d="M 243.457031 235.839844 C 229.6875 235.546875 217.675781 245.800781 216.210938 259.570312 C 216.210938 260.15625 216.503906 260.449219 217.089844 260.449219 L 269.824219 260.449219 C 270.410156 260.449219 270.703125 260.15625 270.703125 259.570312 C 269.53125 245.507812 257.519531 234.960938 243.457031 235.839844 Z M 243.457031 235.839844 " fill-opacity="1" fill-rule="nonzero"/><path fill="#d6c6ba" d="M 356.542969 58.300781 L 244.042969 184.277344 C 242.871094 185.742188 240.527344 185.742188 239.0625 184.570312 L 238.769531 184.277344 L 181.933594 125.390625 C 180.761719 124.21875 180.761719 122.460938 181.640625 120.996094 L 200.683594 96.679688 C 201.855469 95.214844 203.90625 94.628906 205.371094 95.800781 C 205.664062 96.09375 205.957031 96.09375 205.957031 96.386719 L 238.183594 131.835938 C 239.355469 133.300781 241.699219 133.300781 243.164062 132.128906 L 243.457031 131.835938 L 333.398438 9.667969 C 334.277344 8.496094 333.984375 7.03125 332.8125 6.152344 C 332.519531 5.859375 331.933594 5.859375 331.347656 5.566406 L 16.699219 5.566406 C 15.234375 5.859375 14.0625 7.03125 14.0625 8.496094 L 14.0625 366.503906 C 14.0625 367.96875 15.234375 369.140625 16.699219 369.140625 L 358.300781 369.140625 C 359.765625 369.140625 360.9375 367.96875 360.9375 366.503906 L 360.9375 60.058594 C 360.9375 58.59375 359.765625 57.714844 358.59375 57.714844 C 357.714844 57.421875 357.128906 57.714844 356.542969 58.300781 Z M 111.035156 329.296875 C 88.476562 330.175781 66.503906 322.558594 49.804688 307.617188 C 48.632812 306.445312 48.339844 304.6875 49.511719 303.222656 L 62.695312 284.472656 C 63.867188 283.007812 65.917969 282.714844 67.382812 283.59375 L 67.675781 283.886719 C 79.980469 295.3125 95.800781 301.464844 112.5 301.464844 C 130.078125 301.464844 138.574219 293.261719 138.574219 284.765625 C 138.574219 258.105469 52.148438 276.5625 52.148438 220.019531 C 52.148438 195.117188 73.828125 174.316406 108.984375 174.316406 C 129.199219 173.730469 149.121094 180.46875 164.941406 193.359375 C 166.113281 194.53125 166.40625 196.582031 165.234375 197.753906 L 151.464844 215.917969 C 150.292969 217.382812 148.242188 217.675781 146.777344 216.503906 C 135.058594 207.128906 120.703125 202.148438 105.761719 202.441406 C 91.992188 202.441406 84.375 208.59375 84.375 217.382812 C 84.375 241.113281 170.507812 225.292969 170.507812 281.25 C 170.800781 308.496094 151.171875 329.296875 111.035156 329.296875 Z M 299.414062 277.148438 C 299.414062 278.90625 297.949219 280.078125 296.484375 280.078125 L 217.675781 280.078125 C 217.089844 280.078125 216.796875 280.371094 216.796875 280.957031 C 219.433594 296.191406 233.203125 306.738281 248.730469 305.859375 C 258.691406 305.566406 268.066406 302.636719 275.976562 296.777344 C 277.148438 295.898438 279.199219 295.898438 280.078125 297.363281 L 280.371094 297.65625 L 290.039062 311.71875 C 290.917969 312.890625 290.625 314.648438 289.453125 315.820312 C 276.855469 325.195312 261.328125 329.882812 245.800781 329.296875 C 211.816406 329.296875 186.328125 306.445312 186.328125 270.703125 C 185.449219 239.355469 210.058594 213.28125 241.40625 212.402344 L 244.042969 212.402344 C 277.148438 212.402344 300 237.304688 300 273.632812 Z M 299.414062 277.148438 " fill-opacity="1" fill-rule="nonzero"/></svg>